<svg id="Capa_1" enable-background="new 0 0 509.894 509.894" height="512" viewBox="0 0 509.894 509.894" width="512" xmlns="http://www.w3.org/2000/svg"><g><g><g><g><g><path d="m151.069 388.894h208.878v121h-208.878z" fill="#a070ce"/></g><g><path d="m173.569 495.065v-106.171h-22.5v121h208.878v-14.829z" fill="#8040be"/></g><g><path d="m104.947 388.894-60 60v61h106.122v-75.329z" fill="#9eb6f4"/></g><g><path d="m67.613 495.065v-61l41.272-41.272-3.938-3.899-60 60v61h106.122v-14.829z" fill="#6e91ef"/></g><g><path d="m406.069 388.894 60 60v61h-106.122v-75.329z" fill="#9eb6f4"/></g><g><path d="m382.667 495.822v-75.329l27.636-27.365-4.234-4.234-46.122 45.671v75.329h106.122v-14.072z" fill="#6e91ef"/></g><g><path d="m202.947 388.894v30.5c0 28.995 23.505 52.5 52.5 52.5 28.995 0 52.5-23.505 52.5-52.5v-30.5z" fill="#f8e868"/></g><g><path d="m225.508 419.394v-30.5h-22.561v30.5c0 28.995 23.505 52.5 52.5 52.5 3.874 0 7.645-.432 11.28-1.228-23.571-5.163-41.219-26.151-41.219-51.272z" fill="#e8ab4c"/></g><g><path d="m150.514 325.161-20.915 14.802c-23.668 16.75-29.276 49.514-12.526 73.182 16.75 23.668 49.514 29.276 73.182 12.526l12.692-8.982v-31.586z" fill="#f8e868"/></g><g><path d="m134.739 400.482c-16.064-22.698-11.552-53.754 9.72-71.035l-14.86 10.517c-23.668 16.75-29.276 49.515-12.526 73.182 16.75 23.668 49.515 29.276 73.182 12.526l12.692-8.982v-.569c-23.1 12.776-52.603 6.411-68.208-15.639z" fill="#e8ab4c"/></g><g><path d="m361.118 325.161 20.915 14.802c23.668 16.75 29.276 49.514 12.526 73.182-16.75 23.668-49.514 29.276-73.182 12.526l-12.692-8.982v-31.586z" fill="#f8e868"/></g><g><path d="m342.383 412.666-12.692-8.982v-31.586l37.374-42.727-5.947-4.209-52.433 59.942v31.586l12.692 8.982c21.298 15.072 49.955 12.032 67.687-5.973-15.249 4.986-32.579 2.947-46.681-7.033z" fill="#e8ab4c"/></g><g><path d="m450.448 163.894c0-28.77-20.254-52.799-47.278-58.636 1.473-5.204 2.278-10.689 2.278-16.364 0-33.137-26.863-60-60-60-13.647 0-26.224 4.564-36.304 12.238-9.64-20.244-30.282-34.238-54.197-34.238-23.802 0-44.366 13.86-54.064 33.949-10.017-7.504-22.457-11.949-35.936-11.949-33.137 0-60 26.863-60 60 0 5.676.805 11.16 2.278 16.364-27.024 5.837-47.278 29.865-47.278 58.636 0 19.629 9.427 37.054 23.999 48-5.65 7.521-8.999 16.869-8.999 27 0 24.853 20.147 45 45 45h22.999 225.002 22.501c24.853 0 45-20.147 45-45 0-10.131-3.35-19.479-8.999-27 14.571-10.946 23.998-28.371 23.998-48z" fill="#a070ce"/></g><g><g><path d="m403.17 82.592c.669.145 1.331.309 1.992.476-.18-1.87-.453-3.713-.801-5.529-.329 1.709-.722 3.397-1.191 5.053z" fill="#8040be"/></g><g><path d="m107.225 82.592c-.469-1.656-.861-3.343-1.19-5.053-.348 1.816-.621 3.659-.801 5.529.66-.167 1.322-.332 1.991-.476z" fill="#8040be"/></g></g><g><path d="m434.005 227.568c-5.027 19.362-22.621 33.659-43.556 33.659-3.663 0-11.581 0-22.501 0h-225.002c-11.177 0-19.281 0-22.999 0-.064 0-.127 0-.191 0-11.902-.05-21.559-9.799-21.724-21.7-.003-.21-.004-.421-.004-.632 0-10.131 3.35-19.479 8.999-27-14.572-10.947-23.999-28.372-23.999-48 0-28.77 20.254-50.798 47.278-56.634-1.473-5.204-2.278-12.69-2.278-18.366 0-29.189 20.847-53.499 48.461-58.88-3.736-.728-7.593-1.12-11.542-1.12-33.137 0-60 26.863-60 60 0 5.676.805 11.16 2.278 16.364-27.024 5.837-47.278 29.865-47.278 58.636 0 19.629 9.427 37.054 23.999 48-3.468 4.616-6.064 9.923-7.556 15.674-.957 3.689-1.443 7.515-1.443 11.326 0 24.853 20.147 45 45 45h22.999.082 224.92 21.716c24.216 0 44.686-18.818 45.741-43.01.201-4.619-.303-9.087-1.4-13.317z" fill="#8040be"/></g><g><path d="m317.728 150.91-62.781 21.111-61.683-20.927c-24.696-8.379-50.317 9.984-50.317 36.063v97.365c0 62.132 50.368 112.501 112.501 112.501 62.132 0 112.501-50.368 112.501-112.501v-97.516c-.001-26.036-25.543-44.395-50.221-36.096z" fill="#fff"/></g><g><g><path d="m278.008 393.523c-62.133 0-112.501-50.368-112.501-112.501v-97.365c0-15.359 8.891-28.035 21.242-34.154-22.487-3.489-43.802 13.868-43.802 37.654v97.365c0 62.132 50.368 112.501 112.501 112.501 9.865 0 19.431-1.274 28.549-3.659-1.984.104-3.98.159-5.989.159z" fill="#cad8eb"/></g><g><path d="m277.508 168.521 57.348-19.284c-5.532-.735-11.352-.269-17.128 1.673l-46.269 15.559z" fill="#c8d1da"/></g></g><g><circle cx="254.947" cy="299.022" fill="#ff95bd" r="45"/></g><g><path d="m270.767 328.202c-24.853 0-45-20.147-45-45 0-8.368 2.292-16.198 6.271-22.909-13.222 7.838-22.091 22.245-22.091 38.729 0 24.853 20.147 45 45 45 16.485 0 30.891-8.869 38.729-22.091-6.711 3.979-14.541 6.271-22.909 6.271z" fill="#ff7bac"/></g><g><g><path d="m128.689 98.341c-.918-3.266-1.141-6.474-1.237-9.18l-.01-.267.01-.267c.096-2.707.319-5.914 1.237-9.18l14.44 4.061c-.466 1.656-.606 3.558-.677 5.387.071 1.829.211 3.731.677 5.387z" fill="#fff"/></g><g><path d="m148.58 73.5-11.112-10.075c4.082-4.502 9.479-7.99 15.606-10.086l4.855 14.192c-3.733 1.277-6.966 3.341-9.349 5.969z" fill="#fff"/></g></g></g><g><circle cx="330.91" cy="269.858" fill="#ff95bd" r="15.964"/></g><g><circle cx="180.947" cy="269.858" fill="#ff95bd" r="15.964"/></g></g></g><g><path d="m360.448 231.33h15v15h-15z"/><path d="m254.947 246.522c-28.949 0-52.5 23.551-52.5 52.5s23.551 52.5 52.5 52.5 52.5-23.551 52.5-52.5-23.551-52.5-52.5-52.5zm0 90c-20.678 0-37.5-16.822-37.5-37.5s16.822-37.5 37.5-37.5 37.5 16.822 37.5 37.5-16.822 37.5-37.5 37.5z"/><path d="m410.875 384.215c.157-5.183-.349-10.475-1.651-15.777-5.456-22.209-22.514-34.025-39.871-46.144 3.259-9.804 5.285-20.165 5.895-30.9h15.201c39.197 0 65.103-43.615 45.905-78.002 36.958-34.123 23.122-97.388-24.317-113.452 9.129-54.93-51.849-97.623-100.304-69.532-26.096-40.428-87.137-40.585-113.432-.217-48.464-27.67-109.04 14.994-99.941 69.748-47.447 16.066-61.27 79.335-24.318 113.452-13.632 24.418-4.976 56.17 18.917 70.483 13.205 7.911 27.932 7.78 42.693 7.585.614 10.711 2.638 21.049 5.89 30.833-17.342 12.1-34.497 23.94-39.871 46.145-1.265 5.229-1.763 10.447-1.62 15.56l-.408-.408-62.197 62.197v64.106h15v-57.892l50.694-50.694c6.227 18.509 21.254 33.562 40.428 39.162v69.426h15v-67.105c.496.012.986.044 1.485.044 14.097 0 25.444-5.481 36.396-12.581 5.127 27.916 29.622 49.142 58.997 49.142 29.376 0 53.872-21.227 58.998-49.145 10.957 7.096 22.328 12.584 36.395 12.584.54 0 1.07-.034 1.606-.048v67.109h15v-69.465c18.831-5.554 33.712-20.232 40.093-38.335l49.909 49.906v57.894h15v-64.106zm-314.768-116.395c-19.389-16.003-15.055-39.587-1.66-57.418-19.239-14.451-31.856-34.762-25.265-59.678 6.221-23.516 25.083-34.993 47.434-39.821-6.885-24.335-3.991-49.442 18.26-64.983 23.07-16.113 48.009-9.188 68.801 6.388 10.21-21.149 25.969-37.911 51.27-37.913 25.487-.002 41.234 16.961 51.395 38.298 20.75-15.798 45.992-23.109 69.177-6.772 22.199 15.642 25.171 40.569 18.259 64.983 22.274 4.812 41.326 16.319 47.435 39.822 6.494 24.983-5.96 45.177-25.265 59.678 13.391 17.826 17.731 41.414-1.66 57.418-11.097 9.159-25.175 8.964-38.84 8.681v-15.043h-15v23.064c0 57.898-47.103 105.001-105.001 105.001-57.897 0-105-47.103-105-105.001v-97.365c0-20.621 20.854-35.595 40.408-28.96l64.082 21.741 65.183-21.918c20.803-6.996 39.095 8.958 40.329 29.317.581 9.593 0 19.385 0 28.995h15c0-12.693 1.629-26.704-1.091-39.187-5.682-26.067-33.736-41.844-59.019-33.343l-60.38 20.304-59.284-20.113c-29.117-9.878-60.227 12.473-60.227 43.166v89.35c-13.829.3-28.117.573-39.341-8.691zm21.886 131.225c-11.453-29.509 8.507-47.307 29.365-62.423 10.638 21.981 27.789 40.243 48.929 52.273h-.839v23.934c-9.817 7.033-19.381 13.853-32.056 14.82-19.696 1.501-38.253-10.191-45.399-28.604zm137.454 65.349c-24.813 0-45-20.187-45-45v-23.634c13.904 5.645 29.094 8.764 45 8.764s31.096-3.118 45-8.764v23.634c.001 24.813-20.187 45-45 45zm137.455-65.349c-7.413 19.1-27.217 30.996-47.588 28.437-11.627-1.461-20.708-8.059-29.866-14.648v-23.939h-.839c21.139-12.029 38.29-30.291 48.928-52.271 20.846 15.121 40.796 32.969 29.365 62.421z"/></g></g></svg>